<?xml version="1.0" encoding="utf-8"?>
<!-- Generator: Adobe Illustrator 15.0.0, SVG Export Plug-In . SVG Version: 6.00 Build 0)  -->
<!DOCTYPE svg PUBLIC "-//W3C//DTD SVG 1.1//EN" "http://www.w3.org/Graphics/SVG/1.1/DTD/svg11.dtd">
<svg version="1.1" xmlns="http://www.w3.org/2000/svg" xmlns:xlink="http://www.w3.org/1999/xlink" x="0px" y="0px" width="30px"
	 height="30px" viewBox="0 0 30 30" enable-background="new 0 0 30 30" xml:space="preserve">
<g id="DO_NOT_EDIT_-_BOUNDING_BOX">
	<rect id="BOUNDING_BOX" fill="none" width="30" height="30"/>
</g>
<g id="PLACE_YOUR_GRAPHIC_HERE">
	<path opacity="0.3" d="M13.496,4.316L8.714,8.5H4c-1.1,0-2,0.9-2,2v7c0,1.1,0.9,2,2,2h4.714l4.782,4.184
		C14.322,24.408,15,24.1,15,23V5C15,3.9,14.322,3.594,13.496,4.316z M20.371,5.881c-0.336-0.604-1.1-0.818-1.701-0.48
		c-0.604,0.336-0.818,1.098-0.48,1.699c1.178,2.107,1.799,4.494,1.799,6.9c0,2.408-0.621,4.795-1.799,6.9
		c-0.338,0.602-0.123,1.363,0.48,1.701c0.193,0.107,0.402,0.158,0.609,0.158c0.438,0,0.863-0.23,1.092-0.639
		c1.385-2.479,2.117-5.287,2.117-8.121S21.756,8.359,20.371,5.881z M24.314,1.813c-0.381-0.576-1.156-0.734-1.732-0.355
		s-0.736,1.154-0.355,1.73C24.35,6.41,25.471,10.148,25.471,14s-1.121,7.592-3.244,10.813c-0.381,0.576-0.221,1.352,0.355,1.732
		c0.213,0.139,0.451,0.205,0.688,0.205c0.406,0,0.805-0.197,1.045-0.563c2.393-3.631,3.656-7.844,3.656-12.188
		C27.971,9.658,26.707,5.443,24.314,1.813z"/>
	<path opacity="0.15" d="M23.27,28.75c-0.438,0-0.864-0.127-1.233-0.367c-0.507-0.335-0.85-0.842-0.971-1.43
		c-0.121-0.589-0.005-1.19,0.327-1.692c2.014-3.055,3.078-6.603,3.078-10.261c0-3.656-1.064-7.205-3.079-10.262
		c-0.331-0.5-0.447-1.101-0.326-1.69c0.121-0.589,0.465-1.096,0.967-1.426c0.369-0.243,0.797-0.371,1.236-0.371
		c0.76,0,1.462,0.377,1.88,1.01C27.649,6.056,28.971,10.46,28.971,15c0,4.539-1.321,8.944-3.821,12.737
		C24.732,28.371,24.029,28.75,23.27,28.75z M14.318,26.076c-0.499,0-0.997-0.216-1.481-0.641L8.338,21.5H4c-1.654,0-3-1.346-3-3v-7
		c0-1.654,1.346-3,3-3h4.338l4.499-3.936c0.485-0.424,0.983-0.639,1.481-0.639C15.155,3.925,16,4.566,16,6v18
		c0,0.539-0.118,0.992-0.351,1.348C15.345,25.811,14.86,26.076,14.318,26.076z M19.279,24.76c-0.382,0-0.761-0.099-1.095-0.284
		c-0.528-0.296-0.908-0.776-1.071-1.355c-0.162-0.579-0.09-1.186,0.204-1.709c1.093-1.954,1.671-4.171,1.671-6.411
		c0-2.238-0.578-4.456-1.672-6.413c-0.294-0.522-0.365-1.13-0.202-1.709c0.164-0.579,0.544-1.059,1.069-1.351
		c0.332-0.187,0.712-0.287,1.096-0.287c0.816,0,1.569,0.442,1.966,1.154c1.467,2.626,2.243,5.603,2.243,8.605
		c0,3.004-0.776,5.981-2.244,8.608C20.847,24.319,20.094,24.76,19.279,24.76z"/>
	<path opacity="0.15" d="M13.496,5.316L8.714,9.5H4c-1.1,0-2,0.9-2,2v7c0,1.1,0.9,2,2,2h4.714l4.782,4.184
		C14.322,25.408,15,25.1,15,24V6C15,4.9,14.322,4.594,13.496,5.316z M20.371,6.881c-0.336-0.604-1.1-0.818-1.701-0.48
		c-0.604,0.336-0.818,1.098-0.48,1.699c1.178,2.107,1.799,4.494,1.799,6.9c0,2.408-0.621,4.795-1.799,6.9
		c-0.338,0.602-0.123,1.363,0.48,1.701c0.193,0.107,0.402,0.158,0.609,0.158c0.438,0,0.863-0.23,1.092-0.639
		c1.385-2.479,2.117-5.287,2.117-8.121S21.756,9.359,20.371,6.881z M24.314,2.813c-0.381-0.576-1.156-0.734-1.732-0.355
		s-0.736,1.154-0.355,1.73C24.35,7.41,25.471,11.148,25.471,15s-1.121,7.592-3.244,10.813c-0.381,0.576-0.221,1.352,0.355,1.732
		c0.213,0.139,0.451,0.205,0.688,0.205c0.406,0,0.805-0.197,1.045-0.563c2.393-3.631,3.656-7.844,3.656-12.188
		C27.971,10.658,26.707,6.443,24.314,2.813z"/>
	<path fill="#FFFFFF" d="M13.496,5.316L8.714,9.5H4c-1.1,0-2,0.9-2,2v7c0,1.1,0.9,2,2,2h4.714l4.782,4.184
		C14.322,25.408,15,25.1,15,24V6C15,4.9,14.322,4.594,13.496,5.316z M20.371,6.881c-0.336-0.604-1.1-0.818-1.701-0.48
		c-0.604,0.336-0.818,1.098-0.48,1.699c1.178,2.107,1.799,4.494,1.799,6.9c0,2.408-0.621,4.795-1.799,6.9
		c-0.338,0.602-0.123,1.363,0.48,1.701c0.193,0.107,0.402,0.158,0.609,0.158c0.438,0,0.863-0.23,1.092-0.639
		c1.385-2.479,2.117-5.287,2.117-8.121S21.756,9.359,20.371,6.881z M24.314,2.813c-0.381-0.576-1.156-0.734-1.732-0.355
		s-0.736,1.154-0.355,1.73C24.35,7.41,25.471,11.148,25.471,15s-1.121,7.592-3.244,10.813c-0.381,0.576-0.221,1.352,0.355,1.732
		c0.213,0.139,0.451,0.205,0.688,0.205c0.406,0,0.805-0.197,1.045-0.563c2.393-3.631,3.656-7.844,3.656-12.188
		C27.971,10.658,26.707,6.443,24.314,2.813z"/>
</g>
</svg>
